<?xml version="1.0"?>
<svg width="50" height="50" xmlns="http://www.w3.org/2000/svg" xmlns:svg="http://www.w3.org/2000/svg">
  <!-- Created with SVG-edit - https://github.com/SVG-Edit/svgedit-->
  <g class="layer">
    <title>Layer 1</title>
    <path clip-rule="evenodd"
      d="m26,35c1.1,0 2,-0.9 2,-2l-4,0c0,1.1 0.89,2 2,2zm6,-6l0,-5c0,-3.07 -1.64,-5.64 -4.5,-6.32l0,-0.68c0,-0.83 -0.67,-1.5 -1.5,-1.5c-0.83,0 -1.5,0.67 -1.5,1.5l0,0.68c-2.87,0.68 -4.5,3.24 -4.5,6.32l0,5l-2,2l0,1l16,0l0,-1l-2,-2z"
      fill="black" fill-opacity="0.6" fill-rule="evenodd" id="📍 icon_2" />
  </g>
</svg>
