<svg width="281" height="222" viewBox="0 0 281 222" fill="none" xmlns="http://www.w3.org/2000/svg">
  <rect width="281" height="74" transform="translate(0 148)" fill="#F9F8F4" />
  <mask id="path-1-inside-1_2711_661" fill="white">
    <path d="M0 148H281V222H0V148Z" />
  </mask>
  <path d="M0 150H281V146H0V150ZM281 220H0V224H281V220Z" fill="#17395C" mask="url(#path-1-inside-1_2711_661)" />
  <path
    d="M31.328 198.32C30.304 198.32 29.2373 198.192 28.128 197.936C27.04 197.659 26.2613 197.339 25.792 196.976L26.944 194.256C28.224 195.152 29.6853 195.6 31.328 195.6C32.9707 195.6 33.792 195.12 33.792 194.16C33.792 193.733 33.6213 193.403 33.28 193.168C32.9387 192.933 32.3307 192.656 31.456 192.336L30.24 191.888C28.96 191.376 27.9467 190.768 27.2 190.064C26.4533 189.339 26.08 188.389 26.08 187.216C26.08 185.872 26.6027 184.827 27.648 184.08C28.7147 183.312 30.1333 182.928 31.904 182.928C32.7787 182.928 33.632 183.024 34.464 183.216C35.3173 183.408 35.968 183.653 36.416 183.952L35.168 186.704C34.8907 186.427 34.4427 186.192 33.824 186C33.2267 185.787 32.5547 185.68 31.808 185.68C30.2933 185.68 29.536 186.139 29.536 187.056C29.536 187.568 29.7387 187.963 30.144 188.24C30.5493 188.496 31.2107 188.784 32.128 189.104C32.2133 189.125 32.544 189.243 33.12 189.456C34.4853 189.989 35.4987 190.597 36.16 191.28C36.8213 191.963 37.152 192.837 37.152 193.904C37.152 195.355 36.5973 196.453 35.488 197.2C34.4 197.947 33.0133 198.32 31.328 198.32ZM50.9508 189.84L46.5988 198H45.9908L39.8148 183.312H43.5268L46.6948 191.856L50.8868 183.312H51.0148L55.2388 191.792L58.4068 183.312H62.0548L55.9108 198H55.3028L50.9508 189.84ZM72.1743 198.32C70.8516 198.32 69.6249 198.011 68.4943 197.392C67.3849 196.752 66.4889 195.856 65.8063 194.704C65.1449 193.531 64.8143 192.165 64.8143 190.608C64.8143 189.072 65.1023 187.728 65.6783 186.576C66.2756 185.424 67.1183 184.528 68.2063 183.888C69.2943 183.248 70.5743 182.928 72.0463 182.928C72.8996 182.928 73.6996 183.077 74.4463 183.376C75.1929 183.675 75.8223 184.048 76.3343 184.496C76.8463 184.923 77.1876 185.349 77.3583 185.776L77.4223 183.312H80.7183V198H77.4543L77.3903 195.408C77.0276 196.176 76.3663 196.859 75.4063 197.456C74.4463 198.032 73.3689 198.32 72.1743 198.32ZM72.7503 195.44C73.9663 195.44 74.9903 195.024 75.8223 194.192C76.6543 193.339 77.0703 192.229 77.0703 190.864V190.64C77.0703 189.723 76.8783 188.901 76.4943 188.176C76.1103 187.451 75.5876 186.885 74.9263 186.48C74.2649 186.075 73.5396 185.872 72.7503 185.872C71.3849 185.872 70.3289 186.32 69.5823 187.216C68.8356 188.091 68.4623 189.232 68.4623 190.64C68.4623 192.069 68.8249 193.232 69.5503 194.128C70.2969 195.003 71.3636 195.44 72.7503 195.44ZM86.6798 183.312H90.0078V186.032C91.1811 183.963 93.0158 182.928 95.5118 182.928C97.5811 182.928 99.2558 183.589 100.536 184.912C101.816 186.213 102.456 188.101 102.456 190.576C102.456 192.112 102.136 193.467 101.496 194.64C100.877 195.813 100.024 196.72 98.9358 197.36C97.8691 198 96.6744 198.32 95.3518 198.32C94.1144 198.32 93.0371 198.107 92.1198 197.68C91.2238 197.232 90.5198 196.603 90.0078 195.792L90.0398 205.776H86.6798V183.312ZM94.5518 195.408C95.9384 195.408 97.0051 194.971 97.7518 194.096C98.4984 193.2 98.8718 192.059 98.8718 190.672C98.8718 189.221 98.4984 188.069 97.7518 187.216C97.0264 186.341 95.9598 185.904 94.5518 185.904C93.7838 185.904 93.0584 186.096 92.3758 186.48C91.7144 186.843 91.1811 187.376 90.7758 188.08C90.3918 188.763 90.1998 189.563 90.1998 190.48V190.704C90.1998 191.621 90.3918 192.443 90.7758 193.168C91.1811 193.872 91.7144 194.427 92.3758 194.832C93.0371 195.216 93.7624 195.408 94.5518 195.408Z"
    fill="#17395C" />
  <path d="M206.5 179H264" stroke="#17395C" stroke-width="3" />
  <path d="M207.5 179C236 179 236.5 179.5 237 191C237 201 255.333 201.833 264.5 201" stroke="#17395C"
    stroke-width="3" />
  <rect width="281" height="74" transform="translate(0 74)" fill="#F9F8F4" />
  <mask id="path-6-inside-2_2711_661" fill="white">
    <path d="M0 74H281V148H0V74Z" />
  </mask>
  <path d="M0 76H281V72H0V76ZM281 146H0V150H281V146Z" fill="#17395C" mask="url(#path-6-inside-2_2711_661)" />
  <path
    d="M32.768 124.32C31.4453 124.32 30.2187 124.011 29.088 123.392C27.9787 122.752 27.0827 121.856 26.4 120.704C25.7387 119.531 25.408 118.165 25.408 116.608C25.408 114.283 26.0587 112.427 27.36 111.04C28.6613 109.632 30.4213 108.928 32.64 108.928C33.8773 108.928 35.008 109.237 36.032 109.856C37.056 110.453 37.7493 111.179 38.112 112.032L37.952 109.536V100.48H41.344V124H38.048L37.984 121.408C37.6213 122.176 36.96 122.859 36 123.456C35.04 124.032 33.9627 124.32 32.768 124.32ZM33.344 121.408C34.56 121.408 35.584 120.992 36.416 120.16C37.248 119.307 37.664 118.197 37.664 116.832V116.608C37.664 115.691 37.472 114.869 37.088 114.144C36.704 113.419 36.1813 112.853 35.52 112.448C34.8587 112.043 34.1333 111.84 33.344 111.84C31.9787 111.84 30.9227 112.288 30.176 113.184C29.4293 114.059 29.056 115.2 29.056 116.608C29.056 118.037 29.4187 119.2 30.144 120.096C30.8907 120.971 31.9573 121.408 33.344 121.408ZM52.2663 124.32C50.2396 124.32 48.8423 123.723 48.0743 122.528C47.3276 121.333 46.9543 119.669 46.9543 117.536V109.312H50.4103V116.672C50.4103 117.888 50.4743 118.837 50.6023 119.52C50.7516 120.181 51.0289 120.672 51.4343 120.992C51.8609 121.312 52.4903 121.472 53.3223 121.472C53.9196 121.472 54.4956 121.301 55.0503 120.96C55.6049 120.619 56.0529 120.16 56.3943 119.584C56.7569 118.987 56.9383 118.336 56.9383 117.632V109.312H60.3623V124H57.5463L57.1623 121.856C56.6289 122.688 55.9569 123.307 55.1463 123.712C54.3569 124.117 53.3969 124.32 52.2663 124.32ZM66.2735 109.312H69.6015V112.032C70.7748 109.963 72.6095 108.928 75.1055 108.928C77.1748 108.928 78.8495 109.589 80.1295 110.912C81.4095 112.213 82.0495 114.101 82.0495 116.576C82.0495 118.112 81.7295 119.467 81.0895 120.64C80.4708 121.813 79.6175 122.72 78.5295 123.36C77.4628 124 76.2682 124.32 74.9455 124.32C73.7082 124.32 72.6308 124.107 71.7135 123.68C70.8175 123.232 70.1135 122.603 69.6015 121.792L69.6335 131.776H66.2735V109.312ZM74.1455 121.408C75.5322 121.408 76.5988 120.971 77.3455 120.096C78.0922 119.2 78.4655 118.059 78.4655 116.672C78.4655 115.221 78.0922 114.069 77.3455 113.216C76.6202 112.341 75.5535 111.904 74.1455 111.904C73.3775 111.904 72.6522 112.096 71.9695 112.48C71.3082 112.843 70.7748 113.376 70.3695 114.08C69.9855 114.763 69.7935 115.563 69.7935 116.48V116.704C69.7935 117.621 69.9855 118.443 70.3695 119.168C70.7748 119.872 71.3082 120.427 71.9695 120.832C72.6308 121.216 73.3562 121.408 74.1455 121.408Z"
    fill="#17395C" />
  <path d="M206.5 105H264" stroke="#17395C" stroke-width="3" />
  <path d="M207.5 105C236 105 236.5 105.5 237 117C237 127 255.333 127.833 264.5 127" stroke="#17395C"
    stroke-width="3" />
  <rect width="281" height="53" transform="translate(0 21)" fill="#F9F8F4" />
  <mask id="path-11-inside-3_2711_661" fill="white">
    <path d="M0 21H281V74H0V21Z" />
  </mask>
  <path d="M0 23H281V19H0V23ZM281 72H0V76H281V72Z" fill="#17395C" mask="url(#path-11-inside-3_2711_661)" />
  <path
    d="M264.417 36H245.042C244.15 36 243.453 36.4472 242.988 37.1244L236 47.5L242.988 57.8628C243.453 58.54 244.15 59 245.042 59H264.417C265.837 59 267 57.85 267 56.4444V38.5556C267 37.15 265.837 36 264.417 36ZM264.417 56.4444H245.132L239.1 47.5L245.119 38.5556H264.417V56.4444ZM249.446 53.8889L254.083 49.3017L258.72 53.8889C259.996 53.7022 260.421 53.3233 260.542 52.0872L255.905 47.5L260.542 42.9128C260.191 41.8075 259.794 41.4315 258.72 41.1111L254.083 45.6983L249.446 41.1111C248.378 41.323 247.959 41.7009 247.625 42.9128L252.262 47.5L247.625 52.0872C247.906 53.2425 248.248 53.6355 249.446 53.8889Z"
    fill="#17395C" />
  <path
    d="M11.1173 41.528H14.5573V42.856H12.8613V56.904H14.5573V58.232H11.1173V41.528ZM23.4589 58.232V56.904H25.1549V42.856H23.4589V41.528H26.8989V58.232H23.4589Z"
    fill="#17395C" />
  <path d="M74.5 38L72.8256 39.6744L79.4519 46.3125H65V48.6875H79.4519L72.8256 55.3256L74.5 57L84 47.5L74.5 38Z"
    fill="#17395C" />
  <path d="M57 46.3125H42.5481L49.1863 39.6744L47.5 38L38 47.5L47.5 57L49.1744 55.3256L42.5481 48.6875H57V46.3125Z"
    fill="#17395C" />
</svg>
