<svg width="1066" height="1035" viewBox="0 0 1066 1035" fill="none" xmlns="http://www.w3.org/2000/svg">
  <g id="V2" filter="url(#filter0_d_3195_858)">
    <g clip-path="url(#clip0_3195_858)">
      <rect x="4" width="1058" height="1027" fill="#F9F8F4" />
      <g id="VerticalMenuBar #transform #layout">
        <rect x="762" y="1027.09" width="869.094" height="52" transform="rotate(-90 762 1027.09)" fill="#F9F8F4" />
        <g id="VerticalGrab #transform #layout">
          <circle id="Ellipse 4" cx="781.5" cy="607.594" r="4.5" transform="rotate(-90 781.5 607.594)" fill="#17395C" />
          <circle id="Ellipse 5" cx="781.5" cy="592.594" r="4.5" transform="rotate(-90 781.5 592.594)" fill="#17395C" />
          <circle id="Ellipse 6" cx="781.5" cy="577.594" r="4.5" transform="rotate(-90 781.5 577.594)" fill="#17395C" />
          <circle id="Ellipse 7" cx="796.5" cy="577.594" r="4.5" transform="rotate(-90 796.5 577.594)" fill="#17395C" />
          <circle id="Ellipse 8" cx="796.5" cy="592.594" r="4.5" transform="rotate(-90 796.5 592.594)" fill="#17395C" />
          <circle id="Ellipse 9" cx="796.5" cy="607.594" r="4.5" transform="rotate(-90 796.5 607.594)" fill="#17395C" />
        </g>
        <g id="Rectangle">
          <mask id="path-10-inside-1_3195_858" fill="white">
            <path d="M762 1027.09V158H814V1027.09H762Z" />
          </mask>
          <path d="M766 1027.09V158H758V1027.09H766ZM810 158V1027.09H818V158H810Z" fill="#17395C"
            mask="url(#path-10-inside-1_3195_858)" />
        </g>
      </g>
      <g id="MenuBar #transform #layout">
        <rect width="1058" height="53.242" transform="translate(4 118)" fill="#F9F8F4" />
        <g id="Menu #transform #clickable #layout">
          <g id="Group">
            <path id="Vector" d="M18 135H47.02" stroke="#17395C" stroke-width="4.14571" stroke-linecap="round"
              stroke-linejoin="round" />
            <path id="Vector_2" d="M18 145.364H47.02" stroke="#17395C" stroke-width="4.14571" stroke-linecap="round"
              stroke-linejoin="round" />
            <path id="Vector_3" d="M18 155.729H47.02" stroke="#17395C" stroke-width="4.14571" stroke-linecap="round"
              stroke-linejoin="round" />
          </g>
        </g>
        <g id="Undo #transform #clickable #layout">
          <g id="Group_2">
            <path id="Vector_4"
              d="M1014.75 139H1037.5C1041.37 139 1044.5 142.134 1044.5 146C1044.5 149.866 1041.37 153 1037.5 153H1028.75"
              stroke="#17395C" stroke-width="4" stroke-linecap="round" stroke-linejoin="round" />
            <path id="Vector_5" d="M1020 132L1013 139L1020 146" stroke="#17395C" stroke-width="4" stroke-linecap="round"
              stroke-linejoin="round" />
          </g>
        </g>
        <g id="Grab #transform #clickable #layout">
          <circle id="Ellipse 4_2" cx="517.5" cy="138.5" r="4.5" fill="#17395C" />
          <circle id="Ellipse 5_2" cx="532.5" cy="138.5" r="4.5" fill="#17395C" />
          <circle id="Ellipse 6_2" cx="547.5" cy="138.5" r="4.5" fill="#17395C" />
          <circle id="Ellipse 7_2" cx="547.5" cy="153.5" r="4.5" fill="#17395C" />
          <circle id="Ellipse 8_2" cx="532.5" cy="153.5" r="4.5" fill="#17395C" />
          <circle id="Ellipse 9_2" cx="517.5" cy="153.5" r="4.5" fill="#17395C" />
        </g>
        <g id="Rectangle_2">
          <mask id="path-23-inside-2_3195_858" fill="white">
            <path d="M4 118H1062V171.242H4V118Z" />
          </mask>
          <path d="M4 122H1062V114H4V122ZM1062 167.242H4V175.242H1062V167.242Z" fill="#17395C"
            mask="url(#path-23-inside-2_3195_858)" />
        </g>
      </g>
      <g id="Left #transform #layout">
        <g id="#component">
          <g id="ListItem2">
            <rect width="758" height="72.8955" transform="translate(4 296.104)" fill="#F9F8F4" />
            <g id="Rectangle_3">
              <mask id="path-25-inside-3_3195_858" fill="white">
                <path d="M4 296.104H762V369H4V296.104Z" />
              </mask>
              <path d="M4 298.104H762V294.104H4V298.104ZM762 367H4V371H762V367Z" fill="#17395C"
                mask="url(#path-25-inside-3_3195_858)" />
            </g>
            <text id="word #dynamicText" fill="#17395C" xml:space="preserve" style="white-space: pre"
              font-family="Alata" font-size="32" letter-spacing="1.25px">
              <tspan x="68.7402" y="345.672">swap</tspan>
            </text>
            <g id="Group 2">
              <path id="Vector 10" d="M687.5 326.642H745" stroke="#17395C" stroke-width="3" />
              <path id="Vector 11"
                d="M688.5 326.642C717 326.642 717.5 327.134 718 338.463C718 348.313 736.333 349.134 745.5 348.313"
                stroke="#17395C" stroke-width="3" />
            </g>
          </g>
          <g id="ListItem">
            <rect width="758" height="72.8955" transform="translate(4 223.209)" fill="#F9F8F4" />
            <g id="Rectangle_4">
              <mask id="path-30-inside-4_3195_858" fill="white">
                <path d="M4 223.209H762V296.105H4V223.209Z" />
              </mask>
              <path d="M4 225.209H762V221.209H4V225.209ZM762 294.105H4V298.105H762V294.105Z" fill="#17395C"
                mask="url(#path-30-inside-4_3195_858)" />
            </g>
            <text id="word #dynamicText_2" fill="#17395C" xml:space="preserve" style="white-space: pre"
              font-family="Alata" font-size="32" letter-spacing="1.25px">
              <tspan x="68.7402" y="272.777">dup</tspan>
            </text>
            <g id="Group 2_2">
              <path id="Vector 10_2" d="M687.5 253.746H745" stroke="#17395C" stroke-width="3" />
              <path id="Vector 11_2"
                d="M688.5 253.746C717 253.746 717.5 254.239 718 265.567C718 275.418 736.333 276.239 745.5 275.418"
                stroke="#17395C" stroke-width="3" />
            </g>
          </g>
        </g>
        <g id="MenuBar2 #transform #layout">
          <rect width="758" height="52.209" transform="translate(4 171)" fill="#F9F8F4" />
          <g id="Rectangle ">
            <mask id="path-35-inside-5_3195_858" fill="white">
              <path d="M4 171H762V223.209H4V171Z" />
            </mask>
            <path d="M4 173H762V169H4V173ZM762 221.209H4V225.209H762V221.209Z" fill="#17395C"
              mask="url(#path-35-inside-5_3195_858)" />
          </g>
          <path id="Vector #transform  #layout"
            d="M746.417 185H727.042C726.15 185 725.453 185.447 724.988 186.124L718 196.5L724.988 206.863C725.453 207.54 726.15 208 727.042 208H746.417C747.837 208 749 206.85 749 205.444V187.556C749 186.15 747.837 185 746.417 185ZM746.417 205.444H727.132L721.1 196.5L727.119 187.556H746.417V205.444ZM731.446 202.889L736.083 198.302L740.72 202.889C741.996 202.702 742.421 202.323 742.542 201.087L737.905 196.5L742.542 191.913C742.191 190.808 741.794 190.432 740.72 190.111L736.083 194.698L731.446 190.111C730.378 190.323 729.959 190.701 729.625 191.913L734.262 196.5L729.625 201.087C729.906 202.242 730.248 202.635 731.446 202.889Z"
            fill="#17395C" />
          <text id="[ ]  #transform  #layout" fill="#17395C" xml:space="preserve" style="white-space: pre"
            font-family="Alata" font-size="16" letter-spacing="1.25px">
            <tspan x="12.4453" y="204.157">[ ]</tspan>
          </text>
        </g>
      </g>
    </g>
    <rect x="4.5" y="0.5" width="1057" height="1026" stroke="black" />
  </g>
  <defs>
    <filter id="filter0_d_3195_858" x="0" y="0" width="1066" height="1035" filterUnits="userSpaceOnUse"
      color-interpolation-filters="sRGB">
      <feFlood flood-opacity="0" result="BackgroundImageFix" />
      <feColorMatrix in="SourceAlpha" type="matrix" values="0 0 0 0 0 0 0 0 0 0 0 0 0 0 0 0 0 0 127 0"
        result="hardAlpha" />
      <feOffset dy="4" />
      <feGaussianBlur stdDeviation="2" />
      <feComposite in2="hardAlpha" operator="out" />
      <feColorMatrix type="matrix" values="0 0 0 0 0 0 0 0 0 0 0 0 0 0 0 0 0 0 0.25 0" />
      <feBlend mode="normal" in2="BackgroundImageFix" result="effect1_dropShadow_3195_858" />
      <feBlend mode="normal" in="SourceGraphic" in2="effect1_dropShadow_3195_858" result="shape" />
    </filter>
    <clipPath id="clip0_3195_858">
      <rect x="4" width="1058" height="1027" fill="white" />
    </clipPath>
  </defs>
</svg>
